<svg xmlns="http://www.w3.org/2000/svg" width="512" height="512" viewBox="0 0 512 512"><defs><linearGradient id="a" x1="126.68" x2="126.68" y1="253.361" gradientUnits="userSpaceOnUse"><stop stop-color="#574C4A" offset="0%"/><stop stop-color="#80716D" offset="100%"/></linearGradient><linearGradient id="b" x1="139.736" x2="48.263" y1="154.103" y2="-12.874" gradientTransform="scale(1.02 .98)" gradientUnits="userSpaceOnUse"><stop stop-color="#268D83" offset="0%"/><stop stop-color="#2EA19E" offset="100%"/></linearGradient><radialGradient id="c" cx="62.417" cy="142.923" r="9.213" fx="62.417" fy="142.923" gradientUnits="userSpaceOnUse"><stop stop-color="#DB7C7C" offset="0%"/><stop stop-color="#C83737" offset="100%"/></radialGradient><radialGradient id="d" cx="96.726" cy="142.923" r="9.213" fx="96.726" fy="142.923" gradientUnits="userSpaceOnUse"><stop stop-color="#DB7C7C" offset="0%"/><stop stop-color="#C83737" offset="100%"/></radialGradient></defs><path fill="url(#a)" d="M0 171.19V82.17C0 10.27 10.26 0 82.086 0h89.19C243.1 0 253.36 10.27 253.36 82.17v89.02c0 71.9-10.26 82.17-82.085 82.17h-89.19C10.262 253.36 0 243.09 0 171.19z" transform="scale(2.02)"/><path fill="url(#b)" d="M8.89.655C-3.56 79.583 2.954 153.48 2.954 153.48H41.88c-3.703-19.704-16.99-109.724-5.937-110.02 5.924.94 32.99 76.37 32.99 76.37s5.96-.742 11.958-.742c6 0 11.96.742 11.96.742s27.07-75.43 32.99-76.37c11.06.296-2.23 90.316-5.93 110.02h38.927s6.516-73.897-5.94-152.825h-36.04c-6.86.08-32.96 45.856-35.96 45.856S51.797.74 44.937.66z" transform="matrix(2.02 0 0 2.02 92.53 95.18)"/><path fill="url(#c)" d="M73.214 144.267c0 5.088-4.125 9.213-9.214 9.213-5.088 0-9.213-4.125-9.213-9.213 0-5.09 4.125-9.214 9.213-9.214 5.09 0 9.214 4.125 9.214 9.214z" transform="matrix(2.02 0 0 2.02 92.53 95.18)"/><path fill="url(#d)" d="M106.995 144.267c0 5.088-4.125 9.213-9.213 9.213-5.088 0-9.213-4.125-9.213-9.213 0-5.09 4.12-9.214 9.21-9.214s9.21 4.125 9.21 9.214z" transform="matrix(2.02 0 0 2.02 92.53 95.18)"/><path d="M397.664 101.774c11.348 76.812 14.01 150.532 13.802 205.444-.214 56.168-3.432 92.66-3.432 92.66h-66.19l-7.113 5.33h78.64s13.16-149.27-11.992-308.705zm-208.373-1.94c20.66 22.98 56.39 83.966 61.31 83.966-13.1-16.75-45.27-70.192-61.31-83.965zm-29.48 77.802c-22.33.6 4.514 182.44 11.996 222.242H103.16l-4.66 5.33h78.634c-7.444-39.598-34.05-219.824-12.33-222.24-2.02-3.04-3.77-5.137-4.996-5.332zm181.59 0c-11.964 1.9-66.64 154.27-66.64 154.27s-12.04-1.5-24.154-1.5c-7.17 0-13.34.442-17.514.83l-1.31 6s12.04-1.498 24.154-1.498c12.117 0 24.158 1.5 24.158 1.5s54.26-151.372 66.476-154.27c-1.315-3.334-2.94-5.272-5.164-5.332z" opacity=".1"/><path fill="#FFF" d="M110.49 96.503C85.334 255.937 98.495 405.21 98.495 405.21l4.63-5.205c-2.37-35.218-8.7-162.572 12.696-298.17h72.81c1.54.017 3.61 1.28 6 3.33-4.767-5.302-8.73-8.63-11.33-8.662zm218.077 0c-13.857.164-66.58 92.628-72.637 92.628 2.47 3.16 4.477 5.34 5.33 5.34 6.06 0 58.78-92.464 72.638-92.63h64.248l3.224-5.33zm-158.435 91.795c17.685 26.56 61.642 148.94 61.642 148.94l1.286-5.97c-10.853-29.757-52.205-141.32-62.595-142.97-.113.003-.222-.012-.333 0zm181.925 0c11.862 30.254-10.592 181.09-17.326 216.91l7.14-5.567c9.108-53.42 31.03-210.78 10.195-211.34z" opacity=".3"/></svg>